<svg xmlns="http://www.w3.org/2000/svg" viewBox="0 0 32 32" width="512" height="512" fill="#000000"><path d="M 16.042969 0 L 9 17 C 7 21 3 18 3 18 C 5 23 3 25 3 25 C 3 25 4 23 7 26 C 10 29 15 29 15 29 C 8 28 8.43 25.043 9 23 C 10.285 18.391 15.5 5 15.5 5 L 23 23 C 25 28 17 29 17 29 C 17 29 22 29 25 26 C 28 23 29 25 29 25 C 27 22 29 18 29 18 C 25 21 23 17 23 17 L 16.042969 0 z M 2 25 C 2 25 6.9990625 32 15.914062 32 C 24.829062 32 30 25 30 25 C 19 35 16 29 16 29 C 13 35 2 25 2 25 z"></path></svg>