<svg xmlns="http://www.w3.org/2000/svg" width="1180" height="760" viewBox="0 0 1180 760"
     font-family="ui-monospace,SFMono-Regular,Menlo,Consolas,'Liberation Mono',monospace"
     role="img" aria-label="Projects List">
  <defs>
    <linearGradient id="bgGrad" x1="0" y1="0" x2="0" y2="1">
      <stop offset="0" stop-color="#080D1A"/>
      <stop offset="1" stop-color="#0B1120"/>
    </linearGradient>
  </defs>

  <!-- Background -->
  <rect width="1180" height="760" rx="16" fill="url(#bgGrad)"/>

  <!-- Header -->
  <g opacity="0">
    <text x="32" y="34" font-size="12" font-weight="bold" letter-spacing="2.5" fill="#22D3EE">
      PROJECTS.LIST
      <tspan fill="#475569" letter-spacing="1"> ./projects.sh --all</tspan>
    </text>
    <line x1="32" y1="44" x2="1148" y2="44" stroke="rgba(34,211,238,0.15)"/>
    <animate attributeName="opacity" from="0" to="1" dur="0.4s" begin="0.05s" fill="freeze"/>
  </g>

  <!-- Cards -->

    <!-- CARD 1: Star Wars AR_ -->
    <g opacity="0">
      <!-- Card background -->
      <rect x="30" y="56" width="545" height="200" rx="14"
            fill="#0D1424" stroke="rgba(34,211,238,0.22)" stroke-width="1">
        <animate attributeName="stroke-opacity" values="0.18;0.40;0.18" dur="4s" repeatCount="indefinite"/>
      </rect>

      <!-- Repo path header -->
      <circle cx="44" cy="74" r="2.5" fill="#22D3EE" opacity="0.6"/>
      <text x="54" y="78" font-size="11" fill="#475569">UnnamedPeople-Chin/Star-Wars-AR</text>

      <!-- Status dot (top-right) -->
      <circle cx="559" cy="74" r="3.5" fill="#10B981" opacity="0.7">
        <animate attributeName="opacity" values="0.4;0.9;0.4" dur="3s" repeatCount="indefinite"/>
      </circle>

      <!-- Icon box -->
      <rect x="44" y="94" width="52" height="52" rx="14"
            fill="rgba(15,23,42,0.9)" stroke="#22D3EE" stroke-width="1.2"/>
      <g transform="translate(58,108) scale(1.05)">
        <path d="M12 2L2 7l10 5 10-5-10-5zM2 17l10 5 10-5M2 12l10 5 10-5" fill="none" stroke="#22D3EE" stroke-width="2.5" stroke-linecap="round" stroke-linejoin="round"/>
      </g>

      <!-- Title -->
      <text x="108" y="116" font-size="18" font-weight="bold" fill="#F8FAFC">
        Star Wars AR_</text>

      <!-- Description -->
      <text x="108" y="138" font-size="11" fill="#94A3B8">
        Immersive Star Wars character AR visualizer</text>

      <!-- Language legend (stacked dots) -->
      <circle cx="385" cy="118" r="3.5" fill="#22D3EE"/><text x="395" y="122" font-size="10" fill="#94A3B8">C# 63%</text>
        <circle cx="385" cy="136" r="3.5" fill="#A78BFA"/><text x="395" y="140" font-size="10" fill="#94A3B8">ShaderLab 24%</text>
        <circle cx="385" cy="154" r="3.5" fill="#10B981"/><text x="395" y="158" font-size="10" fill="#94A3B8">HLSL 13%</text>

      <!-- Donut chart (multi-segment) -->
      <circle cx="510" cy="138" r="32" fill="none" stroke="#22D3EE" stroke-width="7" stroke-dasharray="126.7 74.4" stroke-dashoffset="0.0" transform="rotate(-90 510 138)"/>
        <circle cx="510" cy="138" r="32" fill="none" stroke="#A78BFA" stroke-width="7" stroke-dasharray="48.3 152.8" stroke-dashoffset="-126.7" transform="rotate(-90 510 138)"/>
        <circle cx="510" cy="138" r="32" fill="none" stroke="#10B981" stroke-width="7" stroke-dasharray="26.1 174.9" stroke-dashoffset="-174.9" transform="rotate(-90 510 138)"/>
        <text x="510" y="143" font-size="13" font-weight="bold" fill="#F8FAFC" text-anchor="middle">63%</text>

      <!-- Tag pills -->
      <rect x="48" y="198" width="32" height="24" rx="12" fill="rgba(34,211,238,0.08)" stroke="rgba(34,211,238,0.35)" stroke-width="1"/><text x="64" y="214" font-size="10" fill="#22D3EE" text-anchor="middle">C#</text><rect x="88.0" y="198" width="53" height="24" rx="12" fill="rgba(34,211,238,0.08)" stroke="rgba(34,211,238,0.35)" stroke-width="1"/><text x="114" y="214" font-size="10" fill="#22D3EE" text-anchor="middle">Unity</text>

      <!-- Stars + updated -->
      <text x="48" y="244" font-size="11" fill="#F59E0B">★</text>
      <text x="62" y="244" font-size="11" font-weight="bold" fill="#94A3B8">
        4</text>
      <text x="86" y="244" font-size="11" fill="#475569">
        updated 2w ago</text>

      <!-- Entrance animation -->
      <animate attributeName="opacity" from="0" to="1" dur="0.5s" begin="0.15s" fill="freeze"/>
    </g>
    <!-- CARD 2: MoneyFlow_ -->
    <g opacity="0">
      <!-- Card background -->
      <rect x="605" y="56" width="545" height="200" rx="14"
            fill="#0D1424" stroke="rgba(34,211,238,0.22)" stroke-width="1">
        <animate attributeName="stroke-opacity" values="0.18;0.40;0.18" dur="4s" repeatCount="indefinite"/>
      </rect>

      <!-- Repo path header -->
      <circle cx="619" cy="74" r="2.5" fill="#22D3EE" opacity="0.6"/>
      <text x="629" y="78" font-size="11" fill="#475569">UnnamedPeople-Chin/MoneyFlow</text>

      <!-- Status dot (top-right) -->
      <circle cx="1134" cy="74" r="3.5" fill="#10B981" opacity="0.7">
        <animate attributeName="opacity" values="0.4;0.9;0.4" dur="3s" repeatCount="indefinite"/>
      </circle>

      <!-- Icon box -->
      <rect x="619" y="94" width="52" height="52" rx="14"
            fill="rgba(15,23,42,0.9)" stroke="#10B981" stroke-width="1.2"/>
      <g transform="translate(633,108) scale(1.05)">
        <circle cx="12" cy="12" r="9" fill="none" stroke="#10B981" stroke-width="2.5"/><path d="M12 8v4l3 3" fill="none" stroke="#10B981" stroke-width="2.5" stroke-linecap="round"/>
      </g>

      <!-- Title -->
      <text x="683" y="116" font-size="18" font-weight="bold" fill="#F8FAFC">
        MoneyFlow_</text>

      <!-- Description -->
      <text x="683" y="138" font-size="11" fill="#94A3B8">
        Finance money flow manager for PBO project</text>

      <!-- Language legend (stacked dots) -->
      <circle cx="960" cy="118" r="3.5" fill="#10B981"/><text x="970" y="122" font-size="10" fill="#94A3B8">Java 78%</text>
        <circle cx="960" cy="136" r="3.5" fill="#F59E0B"/><text x="970" y="140" font-size="10" fill="#94A3B8">XML 15%</text>
        <circle cx="960" cy="154" r="3.5" fill="#A78BFA"/><text x="970" y="158" font-size="10" fill="#94A3B8">Gradle 7%</text>

      <!-- Donut chart (multi-segment) -->
      <circle cx="1085" cy="138" r="32" fill="none" stroke="#10B981" stroke-width="7" stroke-dasharray="156.8 44.2" stroke-dashoffset="0.0" transform="rotate(-90 1085 138)"/>
        <circle cx="1085" cy="138" r="32" fill="none" stroke="#F59E0B" stroke-width="7" stroke-dasharray="30.2 170.9" stroke-dashoffset="-156.8" transform="rotate(-90 1085 138)"/>
        <circle cx="1085" cy="138" r="32" fill="none" stroke="#A78BFA" stroke-width="7" stroke-dasharray="14.1 187.0" stroke-dashoffset="-187.0" transform="rotate(-90 1085 138)"/>
        <text x="1085" y="143" font-size="13" font-weight="bold" fill="#F8FAFC" text-anchor="middle">78%</text>

      <!-- Tag pills -->
      <rect x="623" y="198" width="46" height="24" rx="12" fill="rgba(34,211,238,0.08)" stroke="rgba(34,211,238,0.35)" stroke-width="1"/><text x="646" y="214" font-size="10" fill="#22D3EE" text-anchor="middle">Java</text><rect x="677.0" y="198" width="39" height="24" rx="12" fill="rgba(34,211,238,0.08)" stroke="rgba(34,211,238,0.35)" stroke-width="1"/><text x="696" y="214" font-size="10" fill="#22D3EE" text-anchor="middle">OOP</text>

      <!-- Stars + updated -->
      <text x="623" y="244" font-size="11" fill="#F59E0B">★</text>
      <text x="637" y="244" font-size="11" font-weight="bold" fill="#94A3B8">
        2</text>
      <text x="661" y="244" font-size="11" fill="#475569">
        updated 1mo ago</text>

      <!-- Entrance animation -->
      <animate attributeName="opacity" from="0" to="1" dur="0.5s" begin="0.27s" fill="freeze"/>
    </g>
    <!-- CARD 3: Schedule Organizer_ -->
    <g opacity="0">
      <!-- Card background -->
      <rect x="30" y="280" width="545" height="200" rx="14"
            fill="#0D1424" stroke="rgba(34,211,238,0.22)" stroke-width="1">
        <animate attributeName="stroke-opacity" values="0.18;0.40;0.18" dur="4s" repeatCount="indefinite"/>
      </rect>

      <!-- Repo path header -->
      <circle cx="44" cy="298" r="2.5" fill="#22D3EE" opacity="0.6"/>
      <text x="54" y="302" font-size="11" fill="#475569">UnnamedPeople-Chin/schedule-organizer</text>

      <!-- Status dot (top-right) -->
      <circle cx="559" cy="298" r="3.5" fill="#10B981" opacity="0.7">
        <animate attributeName="opacity" values="0.4;0.9;0.4" dur="3s" repeatCount="indefinite"/>
      </circle>

      <!-- Icon box -->
      <rect x="44" y="318" width="52" height="52" rx="14"
            fill="rgba(15,23,42,0.9)" stroke="#A78BFA" stroke-width="1.2"/>
      <g transform="translate(58,332) scale(1.05)">
        <rect x="3" y="4" width="18" height="16" rx="2" fill="none" stroke="#A78BFA" stroke-width="2.5"/><path d="M16 2v4M8 2v4M3 10h18" fill="none" stroke="#A78BFA" stroke-width="2.5" stroke-linecap="round"/>
      </g>

      <!-- Title -->
      <text x="108" y="340" font-size="18" font-weight="bold" fill="#F8FAFC">
        Schedule Organizer_</text>

      <!-- Description -->
      <text x="108" y="362" font-size="11" fill="#94A3B8">
        Smart schedule and task routine organizer</text>

      <!-- Language legend (stacked dots) -->
      <circle cx="385" cy="342" r="3.5" fill="#A78BFA"/><text x="395" y="346" font-size="10" fill="#94A3B8">JavaScript 55%</text>
        <circle cx="385" cy="360" r="3.5" fill="#EC4899"/><text x="395" y="364" font-size="10" fill="#94A3B8">HTML 28%</text>
        <circle cx="385" cy="378" r="3.5" fill="#22D3EE"/><text x="395" y="382" font-size="10" fill="#94A3B8">CSS 17%</text>

      <!-- Donut chart (multi-segment) -->
      <circle cx="510" cy="362" r="32" fill="none" stroke="#A78BFA" stroke-width="7" stroke-dasharray="110.6 90.5" stroke-dashoffset="0.0" transform="rotate(-90 510 362)"/>
        <circle cx="510" cy="362" r="32" fill="none" stroke="#EC4899" stroke-width="7" stroke-dasharray="56.3 144.8" stroke-dashoffset="-110.6" transform="rotate(-90 510 362)"/>
        <circle cx="510" cy="362" r="32" fill="none" stroke="#22D3EE" stroke-width="7" stroke-dasharray="34.2 166.9" stroke-dashoffset="-166.9" transform="rotate(-90 510 362)"/>
        <text x="510" y="367" font-size="13" font-weight="bold" fill="#F8FAFC" text-anchor="middle">55%</text>

      <!-- Tag pills -->
      <rect x="48" y="422" width="88" height="24" rx="12" fill="rgba(34,211,238,0.08)" stroke="rgba(34,211,238,0.35)" stroke-width="1"/><text x="92" y="438" font-size="10" fill="#22D3EE" text-anchor="middle">JavaScript</text><rect x="144.0" y="422" width="39" height="24" rx="12" fill="rgba(34,211,238,0.08)" stroke="rgba(34,211,238,0.35)" stroke-width="1"/><text x="164" y="438" font-size="10" fill="#22D3EE" text-anchor="middle">CSS</text>

      <!-- Stars + updated -->
      <text x="48" y="468" font-size="11" fill="#F59E0B">★</text>
      <text x="62" y="468" font-size="11" font-weight="bold" fill="#94A3B8">
        3</text>
      <text x="86" y="468" font-size="11" fill="#475569">
        updated 1mo ago</text>

      <!-- Entrance animation -->
      <animate attributeName="opacity" from="0" to="1" dur="0.5s" begin="0.39s" fill="freeze"/>
    </g>
    <!-- CARD 4: Wand Enhancer_ -->
    <g opacity="0">
      <!-- Card background -->
      <rect x="605" y="280" width="545" height="200" rx="14"
            fill="#0D1424" stroke="rgba(34,211,238,0.22)" stroke-width="1">
        <animate attributeName="stroke-opacity" values="0.18;0.40;0.18" dur="4s" repeatCount="indefinite"/>
      </rect>

      <!-- Repo path header -->
      <circle cx="619" cy="298" r="2.5" fill="#22D3EE" opacity="0.6"/>
      <text x="629" y="302" font-size="11" fill="#475569">UnnamedPeople-Chin/Wand-Enhancer</text>

      <!-- Status dot (top-right) -->
      <circle cx="1134" cy="298" r="3.5" fill="#10B981" opacity="0.7">
        <animate attributeName="opacity" values="0.4;0.9;0.4" dur="3s" repeatCount="indefinite"/>
      </circle>

      <!-- Icon box -->
      <rect x="619" y="318" width="52" height="52" rx="14"
            fill="rgba(15,23,42,0.9)" stroke="#F59E0B" stroke-width="1.2"/>
      <g transform="translate(633,332) scale(1.05)">
        <path d="M13 2L3 14h9l-1 6 10-12h-9l1-6z" fill="none" stroke="#F59E0B" stroke-width="2.5" stroke-linecap="round" stroke-linejoin="round"/>
      </g>

      <!-- Title -->
      <text x="683" y="340" font-size="18" font-weight="bold" fill="#F8FAFC">
        Wand Enhancer_</text>

      <!-- Description -->
      <text x="683" y="362" font-size="11" fill="#94A3B8">
        Advanced UX and interoperability extension</text>

      <!-- Language legend (stacked dots) -->
      <circle cx="960" cy="342" r="3.5" fill="#F59E0B"/><text x="970" y="346" font-size="10" fill="#94A3B8">C++ 72%</text>
        <circle cx="960" cy="360" r="3.5" fill="#10B981"/><text x="970" y="364" font-size="10" fill="#94A3B8">CMake 18%</text>
        <circle cx="960" cy="378" r="3.5" fill="#A78BFA"/><text x="970" y="382" font-size="10" fill="#94A3B8">Shell 10%</text>

      <!-- Donut chart (multi-segment) -->
      <circle cx="1085" cy="362" r="32" fill="none" stroke="#F59E0B" stroke-width="7" stroke-dasharray="144.8 56.3" stroke-dashoffset="0.0" transform="rotate(-90 1085 362)"/>
        <circle cx="1085" cy="362" r="32" fill="none" stroke="#10B981" stroke-width="7" stroke-dasharray="36.2 164.9" stroke-dashoffset="-144.8" transform="rotate(-90 1085 362)"/>
        <circle cx="1085" cy="362" r="32" fill="none" stroke="#A78BFA" stroke-width="7" stroke-dasharray="20.1 181.0" stroke-dashoffset="-181.0" transform="rotate(-90 1085 362)"/>
        <text x="1085" y="367" font-size="13" font-weight="bold" fill="#F8FAFC" text-anchor="middle">72%</text>

      <!-- Tag pills -->
      <rect x="623" y="422" width="39" height="24" rx="12" fill="rgba(34,211,238,0.08)" stroke="rgba(34,211,238,0.35)" stroke-width="1"/><text x="642" y="438" font-size="10" fill="#22D3EE" text-anchor="middle">C++</text><rect x="670.0" y="422" width="60" height="24" rx="12" fill="rgba(34,211,238,0.08)" stroke="rgba(34,211,238,0.35)" stroke-width="1"/><text x="700" y="438" font-size="10" fill="#22D3EE" text-anchor="middle">System</text>

      <!-- Stars + updated -->
      <text x="623" y="468" font-size="11" fill="#F59E0B">★</text>
      <text x="637" y="468" font-size="11" font-weight="bold" fill="#94A3B8">
        5</text>
      <text x="661" y="468" font-size="11" fill="#475569">
        updated 1mo ago</text>

      <!-- Entrance animation -->
      <animate attributeName="opacity" from="0" to="1" dur="0.5s" begin="0.51s" fill="freeze"/>
    </g>
    <!-- CARD 5: Readme Stats_ -->
    <g opacity="0">
      <!-- Card background -->
      <rect x="30" y="504" width="545" height="200" rx="14"
            fill="#0D1424" stroke="rgba(34,211,238,0.22)" stroke-width="1">
        <animate attributeName="stroke-opacity" values="0.18;0.40;0.18" dur="4s" repeatCount="indefinite"/>
      </rect>

      <!-- Repo path header -->
      <circle cx="44" cy="522" r="2.5" fill="#22D3EE" opacity="0.6"/>
      <text x="54" y="526" font-size="11" fill="#475569">UnnamedPeople-Chin/github-readme-stats</text>

      <!-- Status dot (top-right) -->
      <circle cx="559" cy="522" r="3.5" fill="#10B981" opacity="0.7">
        <animate attributeName="opacity" values="0.4;0.9;0.4" dur="3s" repeatCount="indefinite"/>
      </circle>

      <!-- Icon box -->
      <rect x="44" y="542" width="52" height="52" rx="14"
            fill="rgba(15,23,42,0.9)" stroke="#EC4899" stroke-width="1.2"/>
      <g transform="translate(58,556) scale(1.05)">
        <rect x="3" y="3" width="18" height="18" rx="2" fill="none" stroke="#EC4899" stroke-width="2.5"/><path d="M8 17V11M12 17V7M16 17V13" fill="none" stroke="#EC4899" stroke-width="2.5" stroke-linecap="round"/>
      </g>

      <!-- Title -->
      <text x="108" y="564" font-size="18" font-weight="bold" fill="#F8FAFC">
        Readme Stats_</text>

      <!-- Description -->
      <text x="108" y="586" font-size="11" fill="#94A3B8">
        Dynamically generated stats for github</text>

      <!-- Language legend (stacked dots) -->
      <circle cx="385" cy="566" r="3.5" fill="#EC4899"/><text x="395" y="570" font-size="10" fill="#94A3B8">JavaScript 65%</text>
        <circle cx="385" cy="584" r="3.5" fill="#22D3EE"/><text x="395" y="588" font-size="10" fill="#94A3B8">CSS 22%</text>
        <circle cx="385" cy="602" r="3.5" fill="#F59E0B"/><text x="395" y="606" font-size="10" fill="#94A3B8">EJS 13%</text>

      <!-- Donut chart (multi-segment) -->
      <circle cx="510" cy="586" r="32" fill="none" stroke="#EC4899" stroke-width="7" stroke-dasharray="130.7 70.4" stroke-dashoffset="0.0" transform="rotate(-90 510 586)"/>
        <circle cx="510" cy="586" r="32" fill="none" stroke="#22D3EE" stroke-width="7" stroke-dasharray="44.2 156.8" stroke-dashoffset="-130.7" transform="rotate(-90 510 586)"/>
        <circle cx="510" cy="586" r="32" fill="none" stroke="#F59E0B" stroke-width="7" stroke-dasharray="26.1 174.9" stroke-dashoffset="-174.9" transform="rotate(-90 510 586)"/>
        <text x="510" y="591" font-size="13" font-weight="bold" fill="#F8FAFC" text-anchor="middle">65%</text>

      <!-- Tag pills -->
      <rect x="48" y="646" width="67" height="24" rx="12" fill="rgba(34,211,238,0.08)" stroke="rgba(34,211,238,0.35)" stroke-width="1"/><text x="82" y="662" font-size="10" fill="#22D3EE" text-anchor="middle">Node.js</text><rect x="123.0" y="646" width="60" height="24" rx="12" fill="rgba(34,211,238,0.08)" stroke="rgba(34,211,238,0.35)" stroke-width="1"/><text x="153" y="662" font-size="10" fill="#22D3EE" text-anchor="middle">Vercel</text>

      <!-- Stars + updated -->
      <text x="48" y="692" font-size="11" fill="#F59E0B">★</text>
      <text x="62" y="692" font-size="11" font-weight="bold" fill="#94A3B8">
        7</text>
      <text x="86" y="692" font-size="11" fill="#475569">
        updated 3d ago</text>

      <!-- Entrance animation -->
      <animate attributeName="opacity" from="0" to="1" dur="0.5s" begin="0.63s" fill="freeze"/>
    </g>
    <!-- CARD 6: Career Logic AI_ -->
    <g opacity="0">
      <!-- Card background -->
      <rect x="605" y="504" width="545" height="200" rx="14"
            fill="#0D1424" stroke="rgba(34,211,238,0.22)" stroke-width="1">
        <animate attributeName="stroke-opacity" values="0.18;0.40;0.18" dur="4s" repeatCount="indefinite"/>
      </rect>

      <!-- Repo path header -->
      <circle cx="619" cy="522" r="2.5" fill="#22D3EE" opacity="0.6"/>
      <text x="629" y="526" font-size="11" fill="#475569">UnnamedPeople-Chin/AI-Portfolio</text>

      <!-- Status dot (top-right) -->
      <circle cx="1134" cy="522" r="3.5" fill="#10B981" opacity="0.7">
        <animate attributeName="opacity" values="0.4;0.9;0.4" dur="3s" repeatCount="indefinite"/>
      </circle>

      <!-- Icon box -->
      <rect x="619" y="542" width="52" height="52" rx="14"
            fill="rgba(15,23,42,0.9)" stroke="#3B82F6" stroke-width="1.2"/>
      <g transform="translate(633,556) scale(1.05)">
        <circle cx="12" cy="12" r="10" fill="none" stroke="#3B82F6" stroke-width="2.5"/><path d="M12 8v4l2.5 2.5" fill="none" stroke="#3B82F6" stroke-width="2.5" stroke-linecap="round"/><circle cx="12" cy="12" r="2" fill="#3B82F6"/>
      </g>

      <!-- Title -->
      <text x="683" y="564" font-size="18" font-weight="bold" fill="#F8FAFC">
        Career Logic AI_</text>

      <!-- Description -->
      <text x="683" y="586" font-size="11" fill="#94A3B8">
        AI powered CV management and career builder</text>

      <!-- Language legend (stacked dots) -->
      <circle cx="960" cy="566" r="3.5" fill="#3B82F6"/><text x="970" y="570" font-size="10" fill="#94A3B8">Python 80%</text>
        <circle cx="960" cy="584" r="3.5" fill="#22D3EE"/><text x="970" y="588" font-size="10" fill="#94A3B8">TypeScript 12%</text>
        <circle cx="960" cy="602" r="3.5" fill="#EC4899"/><text x="970" y="606" font-size="10" fill="#94A3B8">CSS 8%</text>

      <!-- Donut chart (multi-segment) -->
      <circle cx="1085" cy="586" r="32" fill="none" stroke="#3B82F6" stroke-width="7" stroke-dasharray="160.8 40.2" stroke-dashoffset="0.0" transform="rotate(-90 1085 586)"/>
        <circle cx="1085" cy="586" r="32" fill="none" stroke="#22D3EE" stroke-width="7" stroke-dasharray="24.1 176.9" stroke-dashoffset="-160.8" transform="rotate(-90 1085 586)"/>
        <circle cx="1085" cy="586" r="32" fill="none" stroke="#EC4899" stroke-width="7" stroke-dasharray="16.1 185.0" stroke-dashoffset="-185.0" transform="rotate(-90 1085 586)"/>
        <text x="1085" y="591" font-size="13" font-weight="bold" fill="#F8FAFC" text-anchor="middle">80%</text>

      <!-- Tag pills -->
      <rect x="623" y="646" width="60" height="24" rx="12" fill="rgba(34,211,238,0.08)" stroke="rgba(34,211,238,0.35)" stroke-width="1"/><text x="653" y="662" font-size="10" fill="#22D3EE" text-anchor="middle">Python</text><rect x="691.0" y="646" width="53" height="24" rx="12" fill="rgba(34,211,238,0.08)" stroke="rgba(34,211,238,0.35)" stroke-width="1"/><text x="718" y="662" font-size="10" fill="#22D3EE" text-anchor="middle">React</text><rect x="752.0" y="646" width="46" height="24" rx="12" fill="rgba(34,211,238,0.08)" stroke="rgba(34,211,238,0.35)" stroke-width="1"/><text x="775" y="662" font-size="10" fill="#22D3EE" text-anchor="middle">Groq</text>

      <!-- Stars + updated -->
      <text x="623" y="692" font-size="11" fill="#F59E0B">★</text>
      <text x="637" y="692" font-size="11" font-weight="bold" fill="#94A3B8">
        10</text>
      <text x="661" y="692" font-size="11" fill="#475569">
        updated 1d ago</text>

      <!-- Entrance animation -->
      <animate attributeName="opacity" from="0" to="1" dur="0.5s" begin="0.75s" fill="freeze"/>
    </g>
</svg>